<mxfile host="Electron" agent="Mozilla/5.0 (Windows NT 10.0; Win64; x64) AppleWebKit/537.36 (KHTML, like Gecko) draw.io/26.2.15 Chrome/134.0.6998.205 Electron/35.2.1 Safari/537.36" version="26.2.15">
  <diagram id="compensar" name="Diagrama de Solución">
    <mxGraphModel dx="1246" dy="822" grid="1" gridSize="10" guides="1" tooltips="1" connect="1" arrows="1" fold="1" page="1" pageScale="1" pageWidth="827" pageHeight="1169" math="0" shadow="0">
      <root>
        <mxCell id="0" />
        <mxCell id="1" parent="0" />
        <mxCell id="equipo" value="Equipo Financiero CONSULTA" style="shape=rectangle;fillColor=#D3D3D3;" parent="1" vertex="1">
          <mxGeometry x="15" y="160" width="170" height="250" as="geometry" />
        </mxCell>
        <mxCell id="edge2" style="exitX=1;exitY=0.75;exitDx=0;exitDy=0;exitPerimeter=0;" parent="1" source="qO8Hp53vAjUUIeYyYHf4-4" target="qO8Hp53vAjUUIeYyYHf4-32" edge="1">
          <mxGeometry relative="1" as="geometry">
            <mxPoint x="380" y="140" as="sourcePoint" />
            <mxPoint x="500" y="134" as="targetPoint" />
          </mxGeometry>
        </mxCell>
        <mxCell id="edge3" style="entryX=0;entryY=0.5;entryDx=0;entryDy=0;entryPerimeter=0;" parent="1" source="qO8Hp53vAjUUIeYyYHf4-4" edge="1">
          <mxGeometry relative="1" as="geometry">
            <mxPoint x="380" y="173.33333333333326" as="sourcePoint" />
            <mxPoint x="500" y="207.33333333333326" as="targetPoint" />
          </mxGeometry>
        </mxCell>
        <mxCell id="edge4" style="entryX=0.013;entryY=0.51;entryDx=0;entryDy=0;entryPerimeter=0;exitX=0.644;exitY=0.557;exitDx=0;exitDy=0;exitPerimeter=0;" parent="1" source="qO8Hp53vAjUUIeYyYHf4-26" target="qO8Hp53vAjUUIeYyYHf4-24" edge="1">
          <mxGeometry relative="1" as="geometry">
            <mxPoint x="700" y="230" as="targetPoint" />
            <mxPoint x="660" y="230.30241711325084" as="sourcePoint" />
          </mxGeometry>
        </mxCell>
        <mxCell id="edge6" parent="1" source="qO8Hp53vAjUUIeYyYHf4-4" edge="1">
          <mxGeometry relative="1" as="geometry">
            <mxPoint x="334.9208860759493" y="210" as="sourcePoint" />
            <mxPoint x="480.25" y="382" as="targetPoint" />
          </mxGeometry>
        </mxCell>
        <mxCell id="edge7" style="entryX=0.75;entryY=0;entryDx=0;entryDy=0;" parent="1" source="qO8Hp53vAjUUIeYyYHf4-4" target="qO8Hp53vAjUUIeYyYHf4-21" edge="1">
          <mxGeometry relative="1" as="geometry">
            <mxPoint x="380" y="188.47826086956525" as="sourcePoint" />
            <mxPoint x="722.9661016949153" y="420" as="targetPoint" />
          </mxGeometry>
        </mxCell>
        <mxCell id="qO8Hp53vAjUUIeYyYHf4-2" value="" style="shape=umlActor;verticalLabelPosition=bottom;verticalAlign=top;html=1;outlineConnect=0;" vertex="1" parent="1">
          <mxGeometry x="85" y="200" width="30" height="60" as="geometry" />
        </mxCell>
        <mxCell id="qO8Hp53vAjUUIeYyYHf4-16" style="edgeStyle=orthogonalEdgeStyle;rounded=0;orthogonalLoop=1;jettySize=auto;html=1;" edge="1" parent="1" source="qO8Hp53vAjUUIeYyYHf4-4" target="qO8Hp53vAjUUIeYyYHf4-5">
          <mxGeometry relative="1" as="geometry" />
        </mxCell>
        <mxCell id="qO8Hp53vAjUUIeYyYHf4-4" value="" style="sketch=0;points=[[0,0,0],[0.25,0,0],[0.5,0,0],[0.75,0,0],[1,0,0],[0,1,0],[0.25,1,0],[0.5,1,0],[0.75,1,0],[1,1,0],[0,0.25,0],[0,0.5,0],[0,0.75,0],[1,0.25,0],[1,0.5,0],[1,0.75,0]];outlineConnect=0;fontColor=#232F3E;fillColor=#8C4FFF;strokeColor=#ffffff;dashed=0;verticalLabelPosition=bottom;verticalAlign=top;align=center;html=1;fontSize=12;fontStyle=0;aspect=fixed;shape=mxgraph.aws4.resourceIcon;resIcon=mxgraph.aws4.api_gateway;" vertex="1" parent="1">
          <mxGeometry x="212.5" y="90" width="115" height="115" as="geometry" />
        </mxCell>
        <mxCell id="TYA68tIJ-V-rhuwNGgW7-12" style="edgeStyle=orthogonalEdgeStyle;rounded=0;orthogonalLoop=1;jettySize=auto;html=1;" edge="1" parent="1" source="qO8Hp53vAjUUIeYyYHf4-5" target="qO8Hp53vAjUUIeYyYHf4-4">
          <mxGeometry relative="1" as="geometry" />
        </mxCell>
        <mxCell id="qO8Hp53vAjUUIeYyYHf4-5" value="" style="image;sketch=0;aspect=fixed;html=1;points=[];align=center;fontSize=12;image=img/lib/mscae/Cache_Redis_Product.svg;" vertex="1" parent="1">
          <mxGeometry x="233.1" y="320" width="73.81" height="62" as="geometry" />
        </mxCell>
        <mxCell id="qO8Hp53vAjUUIeYyYHf4-6" value="" style="outlineConnect=0;dashed=0;verticalLabelPosition=bottom;verticalAlign=top;align=center;html=1;shape=mxgraph.aws3.postgre_sql_instance;fillColor=#2E73B8;gradientColor=none;" vertex="1" parent="1">
          <mxGeometry x="465" y="400" width="120" height="120" as="geometry" />
        </mxCell>
        <mxCell id="qO8Hp53vAjUUIeYyYHf4-7" value="Cache en REDIS" style="text;html=1;align=center;verticalAlign=middle;resizable=0;points=[];autosize=1;strokeColor=none;fillColor=none;" vertex="1" parent="1">
          <mxGeometry x="210" y="390" width="110" height="30" as="geometry" />
        </mxCell>
        <mxCell id="qO8Hp53vAjUUIeYyYHf4-8" value="Motor de base de datos&amp;nbsp;" style="text;html=1;align=center;verticalAlign=middle;resizable=0;points=[];autosize=1;strokeColor=none;fillColor=none;" vertex="1" parent="1">
          <mxGeometry x="450" y="520" width="150" height="30" as="geometry" />
        </mxCell>
        <mxCell id="qO8Hp53vAjUUIeYyYHf4-12" style="edgeStyle=orthogonalEdgeStyle;rounded=0;orthogonalLoop=1;jettySize=auto;html=1;" edge="1" parent="1" source="qO8Hp53vAjUUIeYyYHf4-9" target="qO8Hp53vAjUUIeYyYHf4-7">
          <mxGeometry relative="1" as="geometry" />
        </mxCell>
        <mxCell id="qO8Hp53vAjUUIeYyYHf4-9" value="" style="image;sketch=0;aspect=fixed;html=1;points=[];align=center;fontSize=12;image=img/lib/mscae/Docker.svg;" vertex="1" parent="1">
          <mxGeometry x="215" y="469" width="100" height="82" as="geometry" />
        </mxCell>
        <mxCell id="qO8Hp53vAjUUIeYyYHf4-10" style="edgeStyle=orthogonalEdgeStyle;rounded=0;orthogonalLoop=1;jettySize=auto;html=1;entryX=0;entryY=0.5;entryDx=0;entryDy=0;entryPerimeter=0;" edge="1" parent="1" source="qO8Hp53vAjUUIeYyYHf4-9" target="qO8Hp53vAjUUIeYyYHf4-6">
          <mxGeometry relative="1" as="geometry" />
        </mxCell>
        <mxCell id="qO8Hp53vAjUUIeYyYHf4-15" style="edgeStyle=orthogonalEdgeStyle;rounded=0;orthogonalLoop=1;jettySize=auto;html=1;entryX=0.99;entryY=0.162;entryDx=0;entryDy=0;entryPerimeter=0;" edge="1" parent="1" source="qO8Hp53vAjUUIeYyYHf4-4" target="equipo">
          <mxGeometry relative="1" as="geometry" />
        </mxCell>
        <mxCell id="qO8Hp53vAjUUIeYyYHf4-19" value="Para crear imagen y contener la información" style="text;html=1;align=center;verticalAlign=middle;resizable=0;points=[];autosize=1;strokeColor=none;fillColor=none;" vertex="1" parent="1">
          <mxGeometry x="135" y="568" width="260" height="30" as="geometry" />
        </mxCell>
        <mxCell id="qO8Hp53vAjUUIeYyYHf4-20" value="" style="sketch=0;aspect=fixed;pointerEvents=1;shadow=0;dashed=0;html=1;strokeColor=none;labelPosition=center;verticalLabelPosition=bottom;verticalAlign=top;align=center;shape=mxgraph.azure.rdp_remoting_file;fillColor=#0078D7;" vertex="1" parent="1">
          <mxGeometry x="810" y="510" width="48" height="50" as="geometry" />
        </mxCell>
        <mxCell id="TYA68tIJ-V-rhuwNGgW7-25" style="edgeStyle=orthogonalEdgeStyle;rounded=0;orthogonalLoop=1;jettySize=auto;html=1;" edge="1" parent="1" source="qO8Hp53vAjUUIeYyYHf4-21" target="TYA68tIJ-V-rhuwNGgW7-24">
          <mxGeometry relative="1" as="geometry" />
        </mxCell>
        <mxCell id="qO8Hp53vAjUUIeYyYHf4-21" value="" style="image;aspect=fixed;perimeter=ellipsePerimeter;html=1;align=center;shadow=0;dashed=0;fontColor=#4277BB;labelBackgroundColor=default;fontSize=12;spacingTop=3;image=img/lib/ibm/blockchain/message_bus.svg;" vertex="1" parent="1">
          <mxGeometry x="670" y="505" width="60" height="60" as="geometry" />
        </mxCell>
        <mxCell id="qO8Hp53vAjUUIeYyYHf4-22" value="Cola de mensajes y Bus de servicios" style="text;html=1;align=center;verticalAlign=middle;resizable=0;points=[];autosize=1;strokeColor=none;fillColor=none;" vertex="1" parent="1">
          <mxGeometry x="640" y="568" width="220" height="30" as="geometry" />
        </mxCell>
        <mxCell id="qO8Hp53vAjUUIeYyYHf4-23" style="edgeStyle=orthogonalEdgeStyle;rounded=0;orthogonalLoop=1;jettySize=auto;html=1;entryX=0;entryY=0.5;entryDx=0;entryDy=0;entryPerimeter=0;" edge="1" parent="1" source="qO8Hp53vAjUUIeYyYHf4-21" target="qO8Hp53vAjUUIeYyYHf4-20">
          <mxGeometry relative="1" as="geometry" />
        </mxCell>
        <mxCell id="qO8Hp53vAjUUIeYyYHf4-24" value="" style="image;aspect=fixed;html=1;points=[];align=center;fontSize=12;image=img/lib/azure2/other/Azure_Center_for_SAP.svg;" vertex="1" parent="1">
          <mxGeometry x="759" y="196" width="68" height="68" as="geometry" />
        </mxCell>
        <mxCell id="qO8Hp53vAjUUIeYyYHf4-25" value="SAP ON PREMISE SOAP" style="text;html=1;align=center;verticalAlign=middle;resizable=0;points=[];autosize=1;strokeColor=none;fillColor=none;" vertex="1" parent="1">
          <mxGeometry x="700" y="270" width="160" height="30" as="geometry" />
        </mxCell>
        <mxCell id="TYA68tIJ-V-rhuwNGgW7-39" style="edgeStyle=orthogonalEdgeStyle;rounded=0;orthogonalLoop=1;jettySize=auto;html=1;" edge="1" parent="1" source="qO8Hp53vAjUUIeYyYHf4-26" target="TYA68tIJ-V-rhuwNGgW7-7">
          <mxGeometry relative="1" as="geometry" />
        </mxCell>
        <mxCell id="qO8Hp53vAjUUIeYyYHf4-52" style="edgeStyle=orthogonalEdgeStyle;rounded=0;orthogonalLoop=1;jettySize=auto;html=1;" edge="1" parent="1" source="qO8Hp53vAjUUIeYyYHf4-26" target="qO8Hp53vAjUUIeYyYHf4-51">
          <mxGeometry relative="1" as="geometry" />
        </mxCell>
        <mxCell id="qO8Hp53vAjUUIeYyYHf4-26" value="" style="verticalLabelPosition=bottom;html=1;verticalAlign=top;align=center;strokeColor=none;fillColor=#00BEF2;shape=mxgraph.azure.service_bus_topics_and_subscriptions;pointerEvents=1;" vertex="1" parent="1">
          <mxGeometry x="491.25" y="148" width="97.5" height="90" as="geometry" />
        </mxCell>
        <mxCell id="TYA68tIJ-V-rhuwNGgW7-18" style="edgeStyle=orthogonalEdgeStyle;rounded=0;orthogonalLoop=1;jettySize=auto;html=1;entryX=0.5;entryY=0;entryDx=0;entryDy=0;" edge="1" parent="1" source="qO8Hp53vAjUUIeYyYHf4-27" target="qO8Hp53vAjUUIeYyYHf4-28">
          <mxGeometry relative="1" as="geometry" />
        </mxCell>
        <mxCell id="qO8Hp53vAjUUIeYyYHf4-27" value="" style="shape=mxgraph.bpmn.conversation2;perimeter=hexagonPerimeter2;whiteSpace=wrap;html=1;aspect=fixed;bpmnConversationType=conv;isLoopSub=1;" vertex="1" parent="1">
          <mxGeometry x="1020" y="120" width="70" height="60" as="geometry" />
        </mxCell>
        <mxCell id="TYA68tIJ-V-rhuwNGgW7-17" style="edgeStyle=orthogonalEdgeStyle;rounded=0;orthogonalLoop=1;jettySize=auto;html=1;" edge="1" parent="1" source="qO8Hp53vAjUUIeYyYHf4-28" target="qO8Hp53vAjUUIeYyYHf4-29">
          <mxGeometry relative="1" as="geometry" />
        </mxCell>
        <mxCell id="qO8Hp53vAjUUIeYyYHf4-28" value="" style="shape=mxgraph.bpmn.conversation2;perimeter=hexagonPerimeter2;whiteSpace=wrap;html=1;aspect=fixed;bpmnConversationType=call;isLoopSub=1;" vertex="1" parent="1">
          <mxGeometry x="1020" y="210" width="70" height="60" as="geometry" />
        </mxCell>
        <mxCell id="TYA68tIJ-V-rhuwNGgW7-16" style="edgeStyle=orthogonalEdgeStyle;rounded=0;orthogonalLoop=1;jettySize=auto;html=1;" edge="1" parent="1" source="qO8Hp53vAjUUIeYyYHf4-29" target="qO8Hp53vAjUUIeYyYHf4-30">
          <mxGeometry relative="1" as="geometry" />
        </mxCell>
        <mxCell id="qO8Hp53vAjUUIeYyYHf4-29" value="" style="points=[[0.25,0,0],[0.5,0,0],[0.75,0,0],[1,0.25,0],[1,0.5,0],[1,0.75,0],[0.75,1,0],[0.5,1,0],[0.25,1,0],[0,0.75,0],[0,0.5,0],[0,0.25,0]];shape=mxgraph.bpmn.task2;whiteSpace=wrap;rectStyle=rounded;size=10;html=1;container=1;expand=0;collapsible=0;taskMarker=abstract;isLoopSub=1;" vertex="1" parent="1">
          <mxGeometry x="970" y="290" width="120" height="80" as="geometry" />
        </mxCell>
        <mxCell id="TYA68tIJ-V-rhuwNGgW7-15" value="" style="edgeStyle=orthogonalEdgeStyle;rounded=0;orthogonalLoop=1;jettySize=auto;html=1;" edge="1" parent="1" source="qO8Hp53vAjUUIeYyYHf4-30" target="TYA68tIJ-V-rhuwNGgW7-14">
          <mxGeometry relative="1" as="geometry" />
        </mxCell>
        <mxCell id="qO8Hp53vAjUUIeYyYHf4-30" value="" style="points=[[0.25,0,0],[0.5,0,0],[0.75,0,0],[1,0.25,0],[1,0.5,0],[1,0.75,0],[0.75,1,0],[0.5,1,0],[0.25,1,0],[0,0.75,0],[0,0.5,0],[0,0.25,0]];shape=mxgraph.bpmn.task2;whiteSpace=wrap;rectStyle=rounded;size=10;html=1;container=1;expand=0;collapsible=0;taskMarker=abstract;bpmnShapeType=subprocess;isLoopSub=1;outline=eventNonint;symbol=message;" vertex="1" parent="1">
          <mxGeometry x="970" y="390" width="120" height="80" as="geometry" />
        </mxCell>
        <mxCell id="qO8Hp53vAjUUIeYyYHf4-39" style="edgeStyle=orthogonalEdgeStyle;rounded=0;orthogonalLoop=1;jettySize=auto;html=1;" edge="1" parent="1" source="qO8Hp53vAjUUIeYyYHf4-31" target="qO8Hp53vAjUUIeYyYHf4-20">
          <mxGeometry relative="1" as="geometry" />
        </mxCell>
        <mxCell id="qO8Hp53vAjUUIeYyYHf4-31" value="" style="points=[[0.25,0,0],[0.5,0,0],[0.75,0,0],[1,0.25,0],[1,0.5,0],[1,0.75,0],[0.75,1,0],[0.5,1,0],[0.25,1,0],[0,0.75,0],[0,0.5,0],[0,0.25,0]];shape=mxgraph.bpmn.task2;whiteSpace=wrap;rectStyle=rounded;size=10;html=1;container=1;expand=0;collapsible=0;taskMarker=abstract;bpmnShapeType=subprocess;isLoopSub=1;outline=eventInt;symbol=message;" vertex="1" parent="1">
          <mxGeometry x="970" y="505" width="120" height="80" as="geometry" />
        </mxCell>
        <mxCell id="TYA68tIJ-V-rhuwNGgW7-8" style="edgeStyle=orthogonalEdgeStyle;rounded=0;orthogonalLoop=1;jettySize=auto;html=1;" edge="1" parent="1" source="qO8Hp53vAjUUIeYyYHf4-32" target="TYA68tIJ-V-rhuwNGgW7-7">
          <mxGeometry relative="1" as="geometry" />
        </mxCell>
        <mxCell id="qO8Hp53vAjUUIeYyYHf4-32" value="" style="dashed=0;outlineConnect=0;html=1;align=center;labelPosition=center;verticalLabelPosition=bottom;verticalAlign=top;shape=mxgraph.weblogos.json_2" vertex="1" parent="1">
          <mxGeometry x="539.8" y="40" width="80.4" height="25.200000000000003" as="geometry" />
        </mxCell>
        <mxCell id="qO8Hp53vAjUUIeYyYHf4-33" value="JSON archivo plano" style="text;html=1;align=center;verticalAlign=middle;resizable=0;points=[];autosize=1;strokeColor=none;fillColor=none;" vertex="1" parent="1">
          <mxGeometry x="520" y="75" width="130" height="30" as="geometry" />
        </mxCell>
        <mxCell id="qO8Hp53vAjUUIeYyYHf4-35" style="edgeStyle=orthogonalEdgeStyle;rounded=0;orthogonalLoop=1;jettySize=auto;html=1;entryX=0.9;entryY=0.1;entryDx=0;entryDy=0;entryPerimeter=0;" edge="1" parent="1" source="qO8Hp53vAjUUIeYyYHf4-27" target="qO8Hp53vAjUUIeYyYHf4-20">
          <mxGeometry relative="1" as="geometry" />
        </mxCell>
        <mxCell id="TYA68tIJ-V-rhuwNGgW7-1" value="Bus de datos TIBCO" style="text;html=1;align=center;verticalAlign=middle;resizable=0;points=[];autosize=1;strokeColor=none;fillColor=none;" vertex="1" parent="1">
          <mxGeometry x="475" y="238" width="130" height="30" as="geometry" />
        </mxCell>
        <mxCell id="qO8Hp53vAjUUIeYyYHf4-36" style="edgeStyle=orthogonalEdgeStyle;rounded=0;orthogonalLoop=1;jettySize=auto;html=1;entryX=0.942;entryY=0.275;entryDx=0;entryDy=0;entryPerimeter=0;" edge="1" parent="1" source="qO8Hp53vAjUUIeYyYHf4-28" target="qO8Hp53vAjUUIeYyYHf4-20">
          <mxGeometry relative="1" as="geometry" />
        </mxCell>
        <mxCell id="TYA68tIJ-V-rhuwNGgW7-2" style="edgeStyle=orthogonalEdgeStyle;rounded=0;orthogonalLoop=1;jettySize=auto;html=1;entryX=1.017;entryY=0.691;entryDx=0;entryDy=0;entryPerimeter=0;" edge="1" parent="1" source="qO8Hp53vAjUUIeYyYHf4-31" target="qO8Hp53vAjUUIeYyYHf4-20">
          <mxGeometry relative="1" as="geometry" />
        </mxCell>
        <mxCell id="qO8Hp53vAjUUIeYyYHf4-37" style="edgeStyle=orthogonalEdgeStyle;rounded=0;orthogonalLoop=1;jettySize=auto;html=1;entryX=0.753;entryY=0.184;entryDx=0;entryDy=0;entryPerimeter=0;" edge="1" parent="1" source="qO8Hp53vAjUUIeYyYHf4-29" target="qO8Hp53vAjUUIeYyYHf4-20">
          <mxGeometry relative="1" as="geometry" />
        </mxCell>
        <mxCell id="TYA68tIJ-V-rhuwNGgW7-3" style="edgeStyle=orthogonalEdgeStyle;rounded=0;orthogonalLoop=1;jettySize=auto;html=1;entryX=0.942;entryY=0.311;entryDx=0;entryDy=0;entryPerimeter=0;" edge="1" parent="1" source="qO8Hp53vAjUUIeYyYHf4-30" target="qO8Hp53vAjUUIeYyYHf4-20">
          <mxGeometry relative="1" as="geometry" />
        </mxCell>
        <mxCell id="qO8Hp53vAjUUIeYyYHf4-38" style="edgeStyle=orthogonalEdgeStyle;rounded=0;orthogonalLoop=1;jettySize=auto;html=1;entryX=0.791;entryY=0.583;entryDx=0;entryDy=0;entryPerimeter=0;" edge="1" parent="1" source="qO8Hp53vAjUUIeYyYHf4-30" target="qO8Hp53vAjUUIeYyYHf4-20">
          <mxGeometry relative="1" as="geometry" />
        </mxCell>
        <mxCell id="TYA68tIJ-V-rhuwNGgW7-4" style="edgeStyle=orthogonalEdgeStyle;rounded=0;orthogonalLoop=1;jettySize=auto;html=1;entryX=0.244;entryY=0.076;entryDx=0;entryDy=0;entryPerimeter=0;" edge="1" parent="1" source="qO8Hp53vAjUUIeYyYHf4-29" target="qO8Hp53vAjUUIeYyYHf4-20">
          <mxGeometry relative="1" as="geometry" />
        </mxCell>
        <mxCell id="TYA68tIJ-V-rhuwNGgW7-5" style="edgeStyle=orthogonalEdgeStyle;rounded=0;orthogonalLoop=1;jettySize=auto;html=1;entryX=0.75;entryY=0.647;entryDx=0;entryDy=0;entryPerimeter=0;" edge="1" parent="1" source="qO8Hp53vAjUUIeYyYHf4-28" target="qO8Hp53vAjUUIeYyYHf4-24">
          <mxGeometry relative="1" as="geometry" />
        </mxCell>
        <mxCell id="qO8Hp53vAjUUIeYyYHf4-50" style="edgeStyle=orthogonalEdgeStyle;rounded=0;orthogonalLoop=1;jettySize=auto;html=1;" edge="1" parent="1" source="qO8Hp53vAjUUIeYyYHf4-43" target="qO8Hp53vAjUUIeYyYHf4-6">
          <mxGeometry relative="1" as="geometry" />
        </mxCell>
        <mxCell id="qO8Hp53vAjUUIeYyYHf4-43" value="" style="image;sketch=0;aspect=fixed;html=1;points=[];align=center;fontSize=12;image=img/lib/mscae/Event_Grid_Topics.svg;" vertex="1" parent="1">
          <mxGeometry x="68.75" y="660" width="110" height="110" as="geometry" />
        </mxCell>
        <mxCell id="TYA68tIJ-V-rhuwNGgW7-9" style="edgeStyle=orthogonalEdgeStyle;rounded=0;orthogonalLoop=1;jettySize=auto;html=1;" edge="1" parent="1" source="TYA68tIJ-V-rhuwNGgW7-7" target="qO8Hp53vAjUUIeYyYHf4-24">
          <mxGeometry relative="1" as="geometry" />
        </mxCell>
        <mxCell id="TYA68tIJ-V-rhuwNGgW7-13" style="edgeStyle=orthogonalEdgeStyle;rounded=0;orthogonalLoop=1;jettySize=auto;html=1;entryX=0.375;entryY=0;entryDx=0;entryDy=0;" edge="1" parent="1" source="TYA68tIJ-V-rhuwNGgW7-7" target="qO8Hp53vAjUUIeYyYHf4-27">
          <mxGeometry relative="1" as="geometry">
            <mxPoint x="1030" y="100" as="targetPoint" />
          </mxGeometry>
        </mxCell>
        <mxCell id="qO8Hp53vAjUUIeYyYHf4-45" value="Evento de tráfico de datos" style="text;html=1;align=center;verticalAlign=middle;resizable=0;points=[];autosize=1;strokeColor=none;fillColor=none;" vertex="1" parent="1">
          <mxGeometry x="85" y="780" width="160" height="30" as="geometry" />
        </mxCell>
        <mxCell id="TYA68tIJ-V-rhuwNGgW7-7" value="" style="shape=mxgraph.sap.icon;labelPosition=center;verticalLabelPosition=bottom;align=center;verticalAlign=top;strokeWidth=1;strokeColor=#D5DADD;fillColor=#EDEFF0;gradientColor=#FCFCFC;gradientDirection=west;aspect=fixed;SAPIcon=SAP_BTP,_ABAP_environment" vertex="1" parent="1">
          <mxGeometry x="768" y="75" width="50" height="50" as="geometry" />
        </mxCell>
        <mxCell id="TYA68tIJ-V-rhuwNGgW7-10" value="API GATEWAY" style="text;html=1;align=center;verticalAlign=middle;resizable=0;points=[];autosize=1;strokeColor=none;fillColor=none;" vertex="1" parent="1">
          <mxGeometry x="220" y="60" width="100" height="30" as="geometry" />
        </mxCell>
        <mxCell id="TYA68tIJ-V-rhuwNGgW7-14" value="Cola de mensajes" style="text;html=1;align=center;verticalAlign=middle;resizable=0;points=[];autosize=1;strokeColor=none;fillColor=none;" vertex="1" parent="1">
          <mxGeometry x="970" y="585" width="120" height="30" as="geometry" />
        </mxCell>
        <mxCell id="TYA68tIJ-V-rhuwNGgW7-19" value="Llamado" style="text;html=1;align=center;verticalAlign=middle;resizable=0;points=[];autosize=1;strokeColor=none;fillColor=none;" vertex="1" parent="1">
          <mxGeometry x="1075" y="128" width="70" height="30" as="geometry" />
        </mxCell>
        <mxCell id="TYA68tIJ-V-rhuwNGgW7-20" value="No interrumpir" style="text;html=1;align=center;verticalAlign=middle;resizable=0;points=[];autosize=1;strokeColor=none;fillColor=none;" vertex="1" parent="1">
          <mxGeometry x="1075" y="225" width="100" height="30" as="geometry" />
        </mxCell>
        <mxCell id="TYA68tIJ-V-rhuwNGgW7-21" value="Colpasado" style="text;html=1;align=center;verticalAlign=middle;resizable=0;points=[];autosize=1;strokeColor=none;fillColor=none;" vertex="1" parent="1">
          <mxGeometry x="1100" y="308" width="80" height="30" as="geometry" />
        </mxCell>
        <mxCell id="TYA68tIJ-V-rhuwNGgW7-22" value="Colapsado mensajes en cola" style="text;html=1;align=center;verticalAlign=middle;resizable=0;points=[];autosize=1;strokeColor=none;fillColor=none;" vertex="1" parent="1">
          <mxGeometry x="1090" y="410" width="180" height="30" as="geometry" />
        </mxCell>
        <mxCell id="TYA68tIJ-V-rhuwNGgW7-23" value="Mensaje tomado y resuelto" style="text;html=1;align=center;verticalAlign=middle;resizable=0;points=[];autosize=1;strokeColor=none;fillColor=none;" vertex="1" parent="1">
          <mxGeometry x="1090" y="535" width="170" height="30" as="geometry" />
        </mxCell>
        <mxCell id="qO8Hp53vAjUUIeYyYHf4-55" style="edgeStyle=orthogonalEdgeStyle;rounded=0;orthogonalLoop=1;jettySize=auto;html=1;" edge="1" parent="1" source="TYA68tIJ-V-rhuwNGgW7-24" target="TYA68tIJ-V-rhuwNGgW7-14">
          <mxGeometry relative="1" as="geometry" />
        </mxCell>
        <mxCell id="TYA68tIJ-V-rhuwNGgW7-24" value="" style="sketch=0;outlineConnect=0;fontColor=#232F3E;gradientColor=none;fillColor=#232F3D;strokeColor=none;dashed=0;verticalLabelPosition=bottom;verticalAlign=top;align=center;html=1;fontSize=12;fontStyle=0;aspect=fixed;pointerEvents=1;shape=mxgraph.aws4.logs;" vertex="1" parent="1">
          <mxGeometry x="563.2" y="650" width="57" height="78" as="geometry" />
        </mxCell>
        <mxCell id="TYA68tIJ-V-rhuwNGgW7-26" value="Logs para corregir" style="text;html=1;align=center;verticalAlign=middle;resizable=0;points=[];autosize=1;strokeColor=none;fillColor=none;" vertex="1" parent="1">
          <mxGeometry x="531.7" y="728" width="120" height="30" as="geometry" />
        </mxCell>
        <mxCell id="TYA68tIJ-V-rhuwNGgW7-27" value="" style="aspect=fixed;sketch=0;html=1;dashed=0;whitespace=wrap;verticalLabelPosition=bottom;verticalAlign=top;fillColor=#2875E2;strokeColor=#ffffff;points=[[0.005,0.63,0],[0.1,0.2,0],[0.9,0.2,0],[0.5,0,0],[0.995,0.63,0],[0.72,0.99,0],[0.5,1,0],[0.28,0.99,0]];shape=mxgraph.kubernetes.icon2;kubernetesLabel=1;prIcon=api" vertex="1" parent="1">
          <mxGeometry x="68.75" y="310" width="62.5" height="60" as="geometry" />
        </mxCell>
        <mxCell id="TYA68tIJ-V-rhuwNGgW7-29" style="edgeStyle=orthogonalEdgeStyle;rounded=0;orthogonalLoop=1;jettySize=auto;html=1;entryX=0.5;entryY=0;entryDx=0;entryDy=0;" edge="1" parent="1" source="TYA68tIJ-V-rhuwNGgW7-28" target="equipo">
          <mxGeometry relative="1" as="geometry" />
        </mxCell>
        <mxCell id="TYA68tIJ-V-rhuwNGgW7-28" value="" style="image;sketch=0;aspect=fixed;html=1;points=[];align=center;fontSize=12;image=img/lib/mscae/On_Premises_Data_Gateways.svg;" vertex="1" parent="1">
          <mxGeometry x="65" y="50" width="70" height="70" as="geometry" />
        </mxCell>
        <mxCell id="TYA68tIJ-V-rhuwNGgW7-35" value="" style="image;sketch=0;aspect=fixed;html=1;points=[];align=center;fontSize=12;image=img/lib/mscae/Service_Bus_Relay.svg;" vertex="1" parent="1">
          <mxGeometry x="667" y="310" width="92" height="92" as="geometry" />
        </mxCell>
        <mxCell id="TYA68tIJ-V-rhuwNGgW7-36" style="edgeStyle=orthogonalEdgeStyle;rounded=0;orthogonalLoop=1;jettySize=auto;html=1;entryX=0.658;entryY=0.824;entryDx=0;entryDy=0;entryPerimeter=0;" edge="1" parent="1" source="TYA68tIJ-V-rhuwNGgW7-35" target="qO8Hp53vAjUUIeYyYHf4-26">
          <mxGeometry relative="1" as="geometry" />
        </mxCell>
        <mxCell id="TYA68tIJ-V-rhuwNGgW7-38" value="Azure service BUS" style="text;html=1;align=center;verticalAlign=middle;resizable=0;points=[];autosize=1;strokeColor=none;fillColor=none;" vertex="1" parent="1">
          <mxGeometry x="653" y="415" width="120" height="30" as="geometry" />
        </mxCell>
        <mxCell id="TYA68tIJ-V-rhuwNGgW7-51" style="edgeStyle=orthogonalEdgeStyle;rounded=0;orthogonalLoop=1;jettySize=auto;html=1;" edge="1" parent="1" source="TYA68tIJ-V-rhuwNGgW7-40" target="equipo">
          <mxGeometry relative="1" as="geometry" />
        </mxCell>
        <mxCell id="TYA68tIJ-V-rhuwNGgW7-40" value="" style="sketch=0;pointerEvents=1;shadow=0;dashed=0;html=1;strokeColor=none;labelPosition=center;verticalLabelPosition=bottom;verticalAlign=top;align=center;fillColor=#505050;shape=mxgraph.mscae.intune.alerts" vertex="1" parent="1">
          <mxGeometry x="75" y="485" width="50" height="50" as="geometry" />
        </mxCell>
        <mxCell id="TYA68tIJ-V-rhuwNGgW7-43" style="edgeStyle=orthogonalEdgeStyle;rounded=0;orthogonalLoop=1;jettySize=auto;html=1;" edge="1" parent="1" source="TYA68tIJ-V-rhuwNGgW7-41" target="TYA68tIJ-V-rhuwNGgW7-28">
          <mxGeometry relative="1" as="geometry" />
        </mxCell>
        <mxCell id="TYA68tIJ-V-rhuwNGgW7-41" value="On premise con datos básicos" style="text;html=1;align=center;verticalAlign=middle;resizable=0;points=[];autosize=1;strokeColor=none;fillColor=none;" vertex="1" parent="1">
          <mxGeometry x="20" width="180" height="30" as="geometry" />
        </mxCell>
        <mxCell id="TYA68tIJ-V-rhuwNGgW7-45" style="edgeStyle=orthogonalEdgeStyle;rounded=0;orthogonalLoop=1;jettySize=auto;html=1;entryX=0.5;entryY=0;entryDx=0;entryDy=0;exitX=0.738;exitY=0.526;exitDx=0;exitDy=0;exitPerimeter=0;" edge="1" parent="1" source="TYA68tIJ-V-rhuwNGgW7-44" target="qO8Hp53vAjUUIeYyYHf4-27">
          <mxGeometry relative="1" as="geometry" />
        </mxCell>
        <mxCell id="TYA68tIJ-V-rhuwNGgW7-44" value="" style="points=[];aspect=fixed;html=1;align=center;shadow=0;dashed=0;fillColor=#FF6A00;strokeColor=none;shape=mxgraph.alibaba_cloud.mq_message_queue;" vertex="1" parent="1">
          <mxGeometry x="925" y="15.4" width="67.41" height="74.6" as="geometry" />
        </mxCell>
        <mxCell id="TYA68tIJ-V-rhuwNGgW7-46" value="Rabbit MQ" style="text;html=1;align=center;verticalAlign=middle;resizable=0;points=[];autosize=1;strokeColor=none;fillColor=none;" vertex="1" parent="1">
          <mxGeometry x="970" y="30" width="80" height="30" as="geometry" />
        </mxCell>
        <mxCell id="TYA68tIJ-V-rhuwNGgW7-48" style="edgeStyle=orthogonalEdgeStyle;rounded=0;orthogonalLoop=1;jettySize=auto;html=1;entryX=0.278;entryY=0.43;entryDx=0;entryDy=0;entryPerimeter=0;" edge="1" parent="1" source="TYA68tIJ-V-rhuwNGgW7-7" target="TYA68tIJ-V-rhuwNGgW7-44">
          <mxGeometry relative="1" as="geometry">
            <Array as="points">
              <mxPoint x="872" y="100" />
              <mxPoint x="872" y="48" />
            </Array>
          </mxGeometry>
        </mxCell>
        <mxCell id="TYA68tIJ-V-rhuwNGgW7-50" style="edgeStyle=orthogonalEdgeStyle;rounded=0;orthogonalLoop=1;jettySize=auto;html=1;entryX=0.443;entryY=0.732;entryDx=0;entryDy=0;entryPerimeter=0;" edge="1" parent="1" source="qO8Hp53vAjUUIeYyYHf4-24" target="TYA68tIJ-V-rhuwNGgW7-44">
          <mxGeometry relative="1" as="geometry" />
        </mxCell>
        <mxCell id="TYA68tIJ-V-rhuwNGgW7-52" value="Alertas" style="text;html=1;align=center;verticalAlign=middle;resizable=0;points=[];autosize=1;strokeColor=none;fillColor=none;" vertex="1" parent="1">
          <mxGeometry x="70" y="538" width="60" height="30" as="geometry" />
        </mxCell>
        <mxCell id="TYA68tIJ-V-rhuwNGgW7-53" style="edgeStyle=orthogonalEdgeStyle;rounded=0;orthogonalLoop=1;jettySize=auto;html=1;entryX=1;entryY=0.5;entryDx=0;entryDy=0;entryPerimeter=0;" edge="1" parent="1" source="qO8Hp53vAjUUIeYyYHf4-9" target="TYA68tIJ-V-rhuwNGgW7-40">
          <mxGeometry relative="1" as="geometry" />
        </mxCell>
        <mxCell id="qO8Hp53vAjUUIeYyYHf4-51" value="" style="sketch=0;outlineConnect=0;fontColor=#232F3E;gradientColor=none;fillColor=#E7157B;strokeColor=none;dashed=0;verticalLabelPosition=bottom;verticalAlign=top;align=center;html=1;fontSize=12;fontStyle=0;aspect=fixed;pointerEvents=1;shape=mxgraph.aws4.event_time_based;" vertex="1" parent="1">
          <mxGeometry x="650" y="75" width="78" height="78" as="geometry" />
        </mxCell>
        <mxCell id="qO8Hp53vAjUUIeYyYHf4-53" value="Alert time Out" style="text;html=1;align=center;verticalAlign=middle;resizable=0;points=[];autosize=1;strokeColor=none;fillColor=none;" vertex="1" parent="1">
          <mxGeometry x="639" y="153" width="100" height="30" as="geometry" />
        </mxCell>
      </root>
    </mxGraphModel>
  </diagram>
</mxfile>
